<?xml version="1.0" encoding="utf-8"?>
<!-- Generator: Adobe Illustrator 16.0.0, SVG Export Plug-In . SVG Version: 6.00 Build 0)  -->
<!DOCTYPE svg PUBLIC "-//W3C//DTD SVG 1.1//EN" "http://www.w3.org/Graphics/SVG/1.1/DTD/svg11.dtd">
<svg version="1.1" id="Layer_1" xmlns="http://www.w3.org/2000/svg" xmlns:xlink="http://www.w3.org/1999/xlink" x="0px" y="0px"
	 width="618px" height="98px" viewBox="-3 346.958 618 98" enable-background="new -3 346.958 618 98" xml:space="preserve">
<g>
	<g>
		<g>
			<path fill="#545759" d="M137.02,409.005v28.305h-18.105v-81.43h30.855c6.545,0,10.965,1.19,13.175,3.315
				c2.21,2.295,3.315,5.78,3.315,10.455v19.72c0,4.76-2.04,8.245-6.205,10.455c-1.02,0.425-1.615,0.85-1.615,1.274
				c0,0.341,0.595,0.766,1.615,1.19c4.505,2.295,6.715,5.78,6.715,10.455v24.479h-18.105V411.13c0-1.445-0.68-2.125-2.125-2.125
				H137.02z M137.02,371.605v21.76h9.605c1.36,0,2.125-0.68,2.125-2.125v-17.51c0-1.445-0.68-2.125-2.125-2.125H137.02z"/>
			<path fill="#545759" d="M219.64,355.88v15.64h-22.61v17.255h19.38v15.64h-19.38v17.255h22.61v15.64h-40.8v-15.64h0.085v-65.79
				H219.64z"/>
			<path fill="#545759" d="M239.955,355.88h28.9l14.705,81.345h-18.105l-2.72-15.3H245.99l-2.635,15.385H225.25L239.955,355.88z
				 M254.405,369.735l-5.61,36.55h11.135L254.405,369.735z"/>
			<path fill="#545759" d="M290.87,355.88h18.104v65.705h20.57v15.64H290.87V355.88z"/>
			<path fill="#545759" d="M363.035,371.605v65.705H344.93v-65.705h-14.875V355.88h47.94v15.64h-14.96V371.605z"/>
			<path fill="#545759" d="M402.135,409.005v28.305H384.03v-81.43h30.77c6.545,0,10.965,1.19,13.175,3.315
				c2.21,2.295,3.315,5.78,3.315,10.455v19.72c0,4.76-2.04,8.245-6.205,10.455c-1.02,0.425-1.615,0.85-1.615,1.274
				c0,0.341,0.596,0.766,1.615,1.19c4.505,2.295,6.715,5.78,6.715,10.455v24.479h-18.104V411.13c0-1.445-0.681-2.125-2.125-2.125
				H402.135z M402.135,371.605v21.76h9.605c1.359,0,2.125-0.68,2.125-2.125v-17.51c0-1.445-0.681-2.125-2.125-2.125H402.135z"/>
			<path fill="#545759" d="M473.365,355.88h18.104v67.575c0,4.76-1.104,8.245-3.314,10.455s-6.63,3.314-13.175,3.314h-14.875
				c-6.546,0-10.966-1.189-13.176-3.314c-2.21-2.295-3.314-5.78-3.314-10.455V355.88h18.104v63.58c0,1.445,0.681,2.125,2.04,2.125
				h7.565c1.359,0,2.125-0.68,2.125-2.125v-63.58H473.365z"/>
			<path fill="#545759" d="M550.545,386.905h-17V373.73c0-1.445-0.68-2.125-2.125-2.125h-7.564c-1.36,0-2.04,0.68-2.04,2.125v45.73
				c0,1.445,0.68,2.125,2.04,2.125h7.564c1.36,0,2.125-0.68,2.125-2.125v-13.09h17v17.085c0,4.76-1.104,8.245-3.314,10.455
				c-2.211,2.21-6.631,3.314-13.176,3.314H520.37c-6.545,0-10.965-1.189-13.175-3.314c-2.21-2.295-3.315-5.78-3.315-10.455v-53.72
				c0-4.76,1.105-8.245,3.315-10.455c2.21-2.21,6.63-3.315,13.175-3.315h13.685c6.545,0,10.965,1.19,13.176,3.315
				c2.21,2.295,3.314,5.78,3.314,10.455V386.905z"/>
			<path fill="#545759" d="M579.87,401.1v36.21h-18.105v-81.43h18.105v34.34l12.58-34.34h18.359l-14.704,39.865L612,437.225h-18.36
				L579.87,401.1z"/>
		</g>
	</g>
	<path fill="#EDB81E" d="M71.995,408.75H97.92v-29.495v-0.085c0-16.32-13.175-29.495-29.41-29.495c-0.17,0-38.675,0-57.63,0H0
		l15.385,19.465H68.34c5.44,0,9.86,4.42,9.86,9.775v9.945H31.11l41.65,53.38h25.5L71.995,408.75z"/>
</g>
</svg>
